<svg width="309" height="235" viewBox="0 0 309 235" fill="none" xmlns="http://www.w3.org/2000/svg">
<path d="M280.352 1.21179C301.519 42.2118 331.152 125.712 280.352 131.712C216.852 139.212 206.352 73.7118 243.352 67.2118C280.352 60.7118 319.852 140.712 232.852 165.212C145.852 189.712 123.352 146.212 155.852 131.712C188.352 117.212 267.352 154.712 224.852 199.712C190.852 235.712 69.0183 236.379 12.3516 232.212M12.3516 232.212C14 231.324 13.1758 226.951 10.4712 224.712M12.3516 232.212C9.43464 233.783 7.3232 231.728 6.37889 229.212M10.4712 224.712C10.0184 224.337 9.4827 223.999 8.85168 223.712M10.4712 224.712C8.96691 217.912 7.76476 221.038 7.35173 223.451M10.4712 224.712L5.8399 226.712M6.37889 229.212C6.07085 228.391 5.88701 227.521 5.8399 226.712M6.37889 229.212L5.8399 226.712M6.37889 229.212L11.8517 226.712M8.85168 223.712C14.3517 223.712 22.7 225 13.5 229C2 234.5 -1.6601 234.5 5.8399 225C3.33992 220 5.85178 221.191 7.35173 223.451M8.85168 223.712C8.26111 223.444 7.76278 223.371 7.35173 223.451M7.35173 223.451C6.21302 223.674 5.74417 225.068 5.8399 226.712M7.35173 223.451C5.68506 221.705 2.15173 218.812 1.35173 221.212M7.35173 223.451C7.35173 220.872 7.75173 216.012 9.35173 217.212" stroke="black"/>
</svg>
