<svg width="28" height="26" viewBox="0 0 28 26" fill="none" xmlns="http://www.w3.org/2000/svg">
<path d="M5.04113 25.256C3.78246 25.256 2.77979 24.808 2.03313 23.912C1.30779 22.9947 0.945125 21.9493 0.945125 20.776C0.945125 19.6027 1.33979 18.5573 2.12913 17.64C2.93979 16.7013 3.89979 16.232 5.00913 16.232C5.47846 16.232 5.86246 16.3493 6.16113 16.584C6.48113 16.7973 6.64113 17.1173 6.64113 17.544C6.64113 18.3333 6.12913 18.728 5.10513 18.728C4.63579 18.728 4.23046 18.9307 3.88913 19.336C3.54779 19.72 3.37713 20.2107 3.37713 20.808C3.37713 21.384 3.53713 21.864 3.85713 22.248C4.17713 22.6107 4.62513 22.792 5.20113 22.792C7.18513 22.792 8.17712 19.72 8.17712 13.576C8.17712 11.8907 8.00646 9.68267 7.66513 6.952C7.32379 4.22133 7.15313 2.632 7.15313 2.184C7.15313 1.71467 7.30246 1.34133 7.60113 1.064C7.89979 0.786666 8.25179 0.647999 8.65713 0.647999C9.25446 0.647999 9.73446 1.02133 10.0971 1.768C11.2491 4.008 12.8918 7.00533 15.0251 10.76C17.1585 14.5147 19.0038 17.6293 20.5611 20.104C20.4758 20.104 20.3691 18.6213 20.2411 15.656C20.1345 12.6693 20.0811 10.7067 20.0811 9.768C20.0811 7.4 20.3158 5.384 20.7851 3.72C21.0625 2.76 21.5105 2.01333 22.1291 1.48C22.7691 0.925332 23.4945 0.647999 24.3051 0.647999C25.1371 0.647999 25.8411 0.871999 26.4171 1.32C26.9931 1.74667 27.2811 2.248 27.2811 2.824C27.2811 3.4 27.0358 3.688 26.5451 3.688C26.3958 3.688 26.0865 3.592 25.6171 3.4C25.1478 3.208 24.7318 3.112 24.3691 3.112C23.0251 3.112 22.3531 6.19467 22.3531 12.36C22.3531 13.8107 22.4705 16.0293 22.7051 19.016C22.9398 22.0027 23.0571 23.6667 23.0571 24.008C23.0571 24.3493 22.9078 24.6587 22.6091 24.936C22.3318 25.2133 22.0011 25.352 21.6171 25.352C21.0411 25.352 20.5398 24.9787 20.1131 24.232C19.0465 22.3333 17.8305 20.2107 16.4651 17.864L12.4011 10.6C11.2278 8.424 10.4171 6.99467 9.96913 6.312C10.2678 9.128 10.4171 11.8053 10.4171 14.344C10.4171 21.6187 8.62513 25.256 5.04113 25.256Z" fill="white"/>
</svg>
