<svg width="309" height="235" viewBox="0 0 309 235" fill="none" xmlns="http://www.w3.org/2000/svg">
<path d="M280 1C301.167 42 330.8 125.5 280 131.5C216.5 139 206 73.5 243 67C280 60.5 319.5 140.5 232.5 165C145.5 189.5 123 146 155.5 131.5C188 117 267 154.5 224.5 199.5C190.5 235.5 68.6666 236.167 11.9999 232M11.9999 232C12.571 230.287 12.8241 226.739 10.1195 224.5M11.9999 232C9.08291 233.571 6.97147 231.516 6.02716 229M8.49995 223.5C13.6666 223.5 21.7 224.5 12.5 228.5C0.999985 233.5 -2.50002 235.5 4.99998 226C2.5 221 5.50005 220.979 7 223.239M8.49995 223.5C7.90938 223.232 7.41105 223.159 7 223.239M8.49995 223.5C9.13097 223.787 9.6667 224.125 10.1195 224.5M7 223.239C7.41303 220.826 8.61518 217.7 10.1195 224.5M7 223.239C5.86129 223.462 5.39244 224.856 5.48817 226.5M7 223.239C5.33333 221.493 1.8 218.6 1 221M7 223.239C7 220.66 7.4 215.8 9 217M10.1195 224.5L5.48817 226.5M5.48817 226.5C5.53528 227.309 5.71912 228.179 6.02716 229M5.48817 226.5L6.02716 229M6.02716 229L11.5 226.5" stroke="black"/>
</svg>
